<?xml version="1.0" encoding="utf-8"?>
<!-- Generator: Adobe Illustrator 26.3.1, SVG Export Plug-In . SVG Version: 6.00 Build 0)  -->
<svg version="1.1" id="Capa_1" xmlns="http://www.w3.org/2000/svg" xmlns:xlink="http://www.w3.org/1999/xlink" x="0px" y="0px"
	 viewBox="0 0 841.89 595.28" style="enable-background:new 0 0 841.89 595.28;" xml:space="preserve">
<style type="text/css">
	.st0{fill:#FFFFFF;}
</style>
<g>
	<path class="st0" d="M181.52,373.2c2.46-14.09,2.02-15.72-6-24.19c-11.69-12.37-23.38-24.74-35.43-37.5
		c11.31-11.99,21.79-24.14,33.41-35.08c8.24-7.76,10.89-16.17,8.09-27.75c-19.78,21.26-39.17,42.11-58.65,63.05
		C142.81,332.58,161.98,352.69,181.52,373.2z M667.22,266.84c-2.2,9.84-0.55,16.62,7.37,22.33c9.07,6.54,17.06,14.56,26.52,22.81
		c-10.54,10.16-20.04,19.6-29.87,28.68c-6.67,6.17-5.59,13.28-4.57,19.75c17.05-16.69,34.08-33.35,51.55-50.45
		C701.44,295.78,684.74,281.65,667.22,266.84z M647.34,248.45c-6.14,18.78-12.17,37.35-18.3,55.9
		c-6.14,18.61-12.33,37.21-18.59,55.78c-3.38,10.02-3.47,9.99,6.68,13.55c1.28-2.98,2.81-5.92,3.84-9.02
		c11.2-33.74,22.09-67.59,33.65-101.21C657.32,255.59,657,250.67,647.34,248.45z"/>
	<path d="M126.62,597.69c15.36-7.75,30.32-16.45,46.16-23.06c35.26-14.72,70.94-28.41,106.47-42.47c8.4-3.33,17.06-6.09,25.21-9.94
		c2.51-1.18,4.89-4.93,5.3-7.79c0.83-5.85-0.16-11.93,0.39-17.84c1.57-17.08-1.09-31.52-15.47-43.95
		c-7.26-6.28-10.85-18.02-13.64-27.98c-4.3-15.38-6.28-31.4-9.75-47.03c-0.55-2.49-3.45-5.68-5.87-6.35
		c-14.05-3.89-22.15-13.85-23.07-27.19c-1.38-20.14-8.57-38.15-15.52-56.52c-4.22-11.16-7.76-22.83-3.38-34.76
		c1.8-4.92,4.62-10.06,8.42-13.49c4.22-3.81,4.09-6.73,2.16-11.33c-11.17-26.59-18.35-54.08-13.91-83.11
		c6.02-39.33,23.59-71.38,60.65-90.05c1.84-0.93,3.72-1.78,5.65-2.51c1.78-0.67,3.64-1.13,6.26-1.93
		c-11.73-4.59-18.5-4.66-37.09-0.78c9.17-14.83,26.97-19.16,56.75-13.56c6.94-15.55,16.86-28.82,33.39-38.06
		c-4.16,12.23-7.83,23.01-11.41,33.55c12.19-6.79,23.33-14.24,35.42-19.48c27.26-11.83,55.81-12.43,84.51-6.35
		c58.32,12.35,103.59,44.67,139.95,92.27c-7.13-1.93-13.33-3.6-21.89-5.91c33.76,46.74,30.42,93.82,9.86,141.49
		c21.51,16.88,19.13,32.6,10.36,57.18c-5.68,15.93-10.39,32.46-13.17,49.11c-2.65,15.88-8.65,27.19-24.74,32.1
		c-2.19,0.67-4.29,4.51-4.85,7.2c-3.27,15.67-5.97,31.45-9.05,47.16c-3.08,15.7-12.57,27.46-23.49,38.49
		c-2.55,2.57-4.48,6.88-4.64,10.48c-0.54,12.68,0.05,25.4-0.3,38.09c-0.14,4.95,1.55,7.41,6.09,9.18
		c29.63,11.52,59.25,23.06,88.71,34.99c26.07,10.56,51.98,21.5,77.82,32.61c3.59,1.54,6.35,4.99,9.5,7.56
		C505.14,597.69,315.88,597.69,126.62,597.69z M390.67,306.57c-10.3,20.17-27.13,33.85-51.02,37.66
		c-23.3,3.71-45.06-0.31-65.4-15.42c5.55,30.6,10.72,59.52,16.06,88.41c3.08,16.69,11.59,30.1,24.64,40.97
		c12.93,10.77,25.37,22.12,38.13,33.09c4.3,3.7,8.57,7.64,13.47,10.39c18.75,10.55,39.3,9.71,59.76,8.29
		c14.73-1.02,28.35-5.25,39.69-15.43c15.21-13.65,30.78-26.91,45.89-40.67c10.43-9.49,16.91-21.3,19.29-35.43
		c3.26-19.35,7.05-38.61,10.51-57.93c1.79-10.01,3.38-20.07,5.44-32.4c-17.13,13.9-35.08,18.25-54.45,18.08
		c-23.59-0.21-44.45-6.79-59.91-25.66c-9.98-12.18-14.46-26.55-16.15-42.1c-0.28-2.62-4.04-4.87-6.2-7.29
		c-2.27,2.64-6.32,5.15-6.54,7.95c-1.69,22.2-2.83,44.45-3.75,66.69c-0.42,10.19,3.26,13.06,13.34,11.2c2.73-0.5,5.22-2.26,7.95-2.8
		c2.64-0.52,5.44-0.23,8.18-0.29c-0.91,2.95-0.97,6.71-2.88,8.68c-5.28,5.43-19.97,6.59-27.29,2.96
		c-8.34-4.15-9.22-11.31-8.89-19.67C391.05,332.59,390.67,319.27,390.67,306.57z M265.4,227.93c98.35,0,194.53,0,290.75,0
		c-0.68-12.11-0.64-12.26-11.01-15.2c-28.52-8.09-55.73-19.03-80.16-36.17c-6.16-4.32-12.4-8.52-18.61-12.77
		c-0.59,0.53-1.19,1.06-1.78,1.59c6.59,10.75,13.18,21.5,19.94,32.53c-33.13-14.1-63-32.9-88.66-58.45
		c4.33,23.22,15.17,43.15,29.52,62.79c-16.35-7.09-30.81-14.7-42.84-26.34c-11.99-11.6-20.31-25.57-26.32-41.32
		c-6.53,21.28-15.97,40.41-31.45,57.08c0-10.88,0-21.76,0-32.64c-0.69-0.12-1.38-0.23-2.06-0.35
		C290.45,181.42,278.2,204.17,265.4,227.93z M501.8,480.28c-0.68-0.5-1.36-1-2.04-1.5c-24.5,25.24-50.48,43.53-88.83,43.6
		c-38.42,0.07-63.84-19.24-89.92-45.19c0,17.33-0.07,32.02,0.1,46.7c0.02,1.62,1.03,3.5,2.13,4.79
		c11.15,13.02,24.63,22.68,40.84,28.63c22.94,8.42,46.43,9.66,70.36,6.23c25.79-3.69,47.78-14.56,64.83-34.61
		c1.11-1.31,2.4-3.05,2.42-4.6C501.87,509.65,501.8,494.97,501.8,480.28z M581,249.43c-4.59,7.3-8.64,13.6-12.49,20.01
		c-0.9,1.49-1.33,3.36-1.63,5.11c-3.45,20.37-6.87,40.74-10.23,61.12c-1.31,7.92-2.44,15.87-3.78,24.66
		c12.06-4.33,13.93-13.51,15.31-23.23c1.3-9.18,2.35-18.49,4.83-27.38c3.11-11.17,7.9-21.86,11.31-32.95
		C587.29,267.09,589.08,257.18,581,249.43z M268.7,360c-0.56-3.68-0.85-6.18-1.33-8.65c-3.34-17.22-7.01-34.39-9.99-51.67
		c-3.05-17.7-9.24-34.17-18.09-50.36c-8.23,10.21-6.64,20.99-1.98,31.45c9,20.24,15.01,41.16,16.94,63.28
		C254.93,351.9,259.36,357.29,268.7,360z"/>
	<path d="M181.52,373.2c-19.54-20.51-38.71-40.63-58.58-61.48c19.48-20.95,38.87-41.79,58.65-63.05c2.8,11.59,0.16,19.99-8.09,27.75
		c-11.62,10.94-22.1,23.09-33.41,35.08c12.06,12.76,23.74,25.14,35.43,37.5C183.54,357.48,183.98,359.12,181.52,373.2z"/>
	<path d="M667.22,266.84c17.52,14.81,34.22,28.93,51,43.12c-17.48,17.1-34.5,33.77-51.55,50.45c-1.01-6.47-2.1-13.58,4.57-19.75
		c9.82-9.09,19.32-18.52,29.87-28.68c-9.46-8.25-17.45-16.27-26.52-22.81C666.67,283.46,665.02,276.68,667.22,266.84z"/>
	<path d="M647.34,248.45c9.66,2.22,9.98,7.14,7.28,14.99c-11.56,33.62-22.44,67.47-33.65,101.21c-1.03,3.1-2.56,6.04-3.84,9.02
		c-10.16-3.56-10.06-3.53-6.68-13.55c6.26-18.57,12.45-37.17,18.59-55.78C635.17,285.8,641.2,267.23,647.34,248.45z"/>
	<path d="M405.49,420.97c-9.11-1.96-24.44-5.15-39.71-8.63c-2.69-0.61-5.72-1.87-7.47-3.83c-1.5-1.68-1.4-4.8-2.01-7.28
		c2.51-0.43,5.17-1.62,7.49-1.15c12.31,2.51,24.44,6.11,36.83,8.08c19.05,3.02,37.55-0.34,55.39-7.39c3.65-1.44,7.85-3.82,9.91,1.29
		c2.13,5.27-2.63,6.94-6.37,8.74C444.55,418.02,428.41,419.59,405.49,420.97z"/>
</g>
</svg>
