<svg xmlns="http://www.w3.org/2000/svg" xml:space="preserve" id="Capa_1" x="0" y="0" viewBox="0 0 841.89 595.28"><path d="M181.52 373.2c2.46-14.09 2.02-15.72-6-24.19-11.69-12.37-23.38-24.74-35.43-37.5 11.31-11.99 21.79-24.14 33.41-35.08 8.24-7.76 10.89-16.17 8.09-27.75-19.78 21.26-39.17 42.11-58.65 63.05 19.87 20.85 39.04 40.96 58.58 61.47m485.7-106.36c-2.2 9.84-.55 16.62 7.37 22.33 9.07 6.54 17.06 14.56 26.52 22.81-10.54 10.16-20.04 19.6-29.87 28.68-6.67 6.17-5.59 13.28-4.57 19.75 17.05-16.69 34.08-33.35 51.55-50.45-16.78-14.18-33.48-28.31-51-43.12m-19.88-18.39c-6.14 18.78-12.17 37.35-18.3 55.9a9110 9110 0 0 1-18.59 55.78c-3.38 10.02-3.47 9.99 6.68 13.55 1.28-2.98 2.81-5.92 3.84-9.02 11.2-33.74 22.09-67.59 33.65-101.21 2.7-7.86 2.38-12.78-7.28-15" style="fill:#fff"/><path d="M126.62 597.69c15.36-7.75 30.32-16.45 46.16-23.06 35.26-14.72 70.94-28.41 106.47-42.47 8.4-3.33 17.06-6.09 25.21-9.94 2.51-1.18 4.89-4.93 5.3-7.79.83-5.85-.16-11.93.39-17.84 1.57-17.08-1.09-31.52-15.47-43.95-7.26-6.28-10.85-18.02-13.64-27.98-4.3-15.38-6.28-31.4-9.75-47.03-.55-2.49-3.45-5.68-5.87-6.35-14.05-3.89-22.15-13.85-23.07-27.19-1.38-20.14-8.57-38.15-15.52-56.52-4.22-11.16-7.76-22.83-3.38-34.76 1.8-4.92 4.62-10.06 8.42-13.49 4.22-3.81 4.09-6.73 2.16-11.33-11.17-26.59-18.35-54.08-13.91-83.11 6.02-39.33 23.59-71.38 60.65-90.05 1.84-.93 3.72-1.78 5.65-2.51 1.78-.67 3.64-1.13 6.26-1.93-11.73-4.59-18.5-4.66-37.09-.78 9.17-14.83 26.97-19.16 56.75-13.56 6.94-15.55 16.86-28.82 33.39-38.06-4.16 12.23-7.83 23.01-11.41 33.55 12.19-6.79 23.33-14.24 35.42-19.48C397 .23 425.55-.37 454.25 5.71c58.32 12.35 103.59 44.67 139.95 92.27-7.13-1.93-13.33-3.6-21.89-5.91 33.76 46.74 30.42 93.82 9.86 141.49 21.51 16.88 19.13 32.6 10.36 57.18-5.68 15.93-10.39 32.46-13.17 49.11-2.65 15.88-8.65 27.19-24.74 32.1-2.19.67-4.29 4.51-4.85 7.2-3.27 15.67-5.97 31.45-9.05 47.16-3.08 15.7-12.57 27.46-23.49 38.49-2.55 2.57-4.48 6.88-4.64 10.48-.54 12.68.05 25.4-.3 38.09-.14 4.95 1.55 7.41 6.09 9.18 29.63 11.52 59.25 23.06 88.71 34.99 26.07 10.56 51.98 21.5 77.82 32.61 3.59 1.54 6.35 4.99 9.5 7.56-189.27-.02-378.53-.02-567.79-.02m264.05-291.12c-10.3 20.17-27.13 33.85-51.02 37.66-23.3 3.71-45.06-.31-65.4-15.42 5.55 30.6 10.72 59.52 16.06 88.41 3.08 16.69 11.59 30.1 24.64 40.97 12.93 10.77 25.37 22.12 38.13 33.09 4.3 3.7 8.57 7.64 13.47 10.39 18.75 10.55 39.3 9.71 59.76 8.29 14.73-1.02 28.35-5.25 39.69-15.43 15.21-13.65 30.78-26.91 45.89-40.67 10.43-9.49 16.91-21.3 19.29-35.43 3.26-19.35 7.05-38.61 10.51-57.93 1.79-10.01 3.38-20.07 5.44-32.4-17.13 13.9-35.08 18.25-54.45 18.08-23.59-.21-44.45-6.79-59.91-25.66-9.98-12.18-14.46-26.55-16.15-42.1-.28-2.62-4.04-4.87-6.2-7.29-2.27 2.64-6.32 5.15-6.54 7.95-1.69 22.2-2.83 44.45-3.75 66.69-.42 10.19 3.26 13.06 13.34 11.2 2.73-.5 5.22-2.26 7.95-2.8 2.64-.52 5.44-.23 8.18-.29-.91 2.95-.97 6.71-2.88 8.68-5.28 5.43-19.97 6.59-27.29 2.96-8.34-4.15-9.22-11.31-8.89-19.67.51-13.26.13-26.58.13-39.28M265.4 227.93h290.75c-.68-12.11-.64-12.26-11.01-15.2-28.52-8.09-55.73-19.03-80.16-36.17-6.16-4.32-12.4-8.52-18.61-12.77-.59.53-1.19 1.06-1.78 1.59l19.94 32.53c-33.13-14.1-63-32.9-88.66-58.45 4.33 23.22 15.17 43.15 29.52 62.79-16.35-7.09-30.81-14.7-42.84-26.34-11.99-11.6-20.31-25.57-26.32-41.32-6.53 21.28-15.97 40.41-31.45 57.08v-32.64c-.69-.12-1.38-.23-2.06-.35-12.27 22.74-24.52 45.49-37.32 69.25m236.4 252.35-2.04-1.5c-24.5 25.24-50.48 43.53-88.83 43.6-38.42.07-63.84-19.24-89.92-45.19 0 17.33-.07 32.02.1 46.7.02 1.62 1.03 3.5 2.13 4.79 11.15 13.02 24.63 22.68 40.84 28.63 22.94 8.42 46.43 9.66 70.36 6.23 25.79-3.69 47.78-14.56 64.83-34.61 1.11-1.31 2.4-3.05 2.42-4.6.18-14.68.11-29.36.11-44.05M581 249.43c-4.59 7.3-8.64 13.6-12.49 20.01-.9 1.49-1.33 3.36-1.63 5.11-3.45 20.37-6.87 40.74-10.23 61.12-1.31 7.92-2.44 15.87-3.78 24.66 12.06-4.33 13.93-13.51 15.31-23.23 1.3-9.18 2.35-18.49 4.83-27.38 3.11-11.17 7.9-21.86 11.31-32.95 2.97-9.68 4.76-19.59-3.32-27.34M268.7 360c-.56-3.68-.85-6.18-1.33-8.65-3.34-17.22-7.01-34.39-9.99-51.67-3.05-17.7-9.24-34.17-18.09-50.36-8.23 10.21-6.64 20.99-1.98 31.45 9 20.24 15.01 41.16 16.94 63.28.68 7.85 5.11 13.24 14.45 15.95"/><path d="M181.52 373.2c-19.54-20.51-38.71-40.63-58.58-61.48 19.48-20.95 38.87-41.79 58.65-63.05 2.8 11.59.16 19.99-8.09 27.75-11.62 10.94-22.1 23.09-33.41 35.08 12.06 12.76 23.74 25.14 35.43 37.5 8.02 8.48 8.46 10.12 6 24.2m485.7-106.36c17.52 14.81 34.22 28.93 51 43.12-17.48 17.1-34.5 33.77-51.55 50.45-1.01-6.47-2.1-13.58 4.57-19.75 9.82-9.09 19.32-18.52 29.87-28.68-9.46-8.25-17.45-16.27-26.52-22.81-7.92-5.71-9.57-12.49-7.37-22.33m-19.88-18.39c9.66 2.22 9.98 7.14 7.28 14.99-11.56 33.62-22.44 67.47-33.65 101.21-1.03 3.1-2.56 6.04-3.84 9.02-10.16-3.56-10.06-3.53-6.68-13.55a9110 9110 0 0 0 18.59-55.78c6.13-18.54 12.16-37.11 18.3-55.89M405.49 420.97c-9.11-1.96-24.44-5.15-39.71-8.63-2.69-.61-5.72-1.87-7.47-3.83-1.5-1.68-1.4-4.8-2.01-7.28 2.51-.43 5.17-1.62 7.49-1.15 12.31 2.51 24.44 6.11 36.83 8.08 19.05 3.02 37.55-.34 55.39-7.39 3.65-1.44 7.85-3.82 9.91 1.29 2.13 5.27-2.63 6.94-6.37 8.74-15 7.22-31.14 8.79-54.06 10.17"/></svg>
