<svg xmlns="http://www.w3.org/2000/svg" width="800" height="800" viewBox="0 0 30 30"><title>tools</title><path fill-rule="evenodd" d="M29.159 5.37c-.506.568-1.346 1.291-2.55 2.392-1.275 1.272-3.08 1.272-4.355 0-1.276-1.274-1.276-3.074 0-4.347C23.429 2.242 24.692.853 24.672.847c-3.415-1.573-7.59-.965-10.404 1.843-2.565 2.559-3.296 6.245-2.217 9.456L1.2 22.976a4.09 4.09 0 0 0 0 5.795 4.114 4.114 0 0 0 5.808 0l10.85-10.829c3.22 1.079 6.913.347 9.478-2.212 2.81-2.805 3.394-6.955 1.823-10.36"/></svg>
