<svg xmlns="http://www.w3.org/2000/svg" width="800" height="800" fill="none" viewBox="0 0 24 24"><path stroke="#000" stroke-linecap="round" stroke-linejoin="round" stroke-width="2" d="M18 7h.01M15 7h.01M18 17h.01M15 17h.01M6 10h12c.932 0 1.398 0 1.765-.152a2 2 0 0 0 1.083-1.083C21 8.398 21 7.932 21 7s0-1.398-.152-1.765a2 2 0 0 0-1.083-1.083C19.398 4 18.932 4 18 4H6c-.932 0-1.398 0-1.765.152a2 2 0 0 0-1.083 1.083C3 5.602 3 6.068 3 7s0 1.398.152 1.765a2 2 0 0 0 1.083 1.083C4.602 10 5.068 10 6 10m0 10h12c.932 0 1.398 0 1.765-.152a2 2 0 0 0 1.083-1.083C21 18.398 21 17.932 21 17s0-1.398-.152-1.765a2 2 0 0 0-1.083-1.083C19.398 14 18.932 14 18 14H6c-.932 0-1.398 0-1.765.152a2 2 0 0 0-1.083 1.083C3 15.602 3 16.068 3 17s0 1.398.152 1.765a2 2 0 0 0 1.083 1.083C4.602 20 5.068 20 6 20"/></svg>
